<mxfile host="app.diagrams.net" agent="Mozilla/5.0 (Windows NT 10.0; Win64; x64) AppleWebKit/537.36 (KHTML, like Gecko) Chrome/137.0.0.0 Safari/537.36" version="27.1.6">
  <diagram name="Page-1" id="SmEbtuBsyw52A0C-7QyM">
    <mxGraphModel dx="1678" dy="1457" grid="1" gridSize="10" guides="1" tooltips="1" connect="1" arrows="1" fold="1" page="1" pageScale="1" pageWidth="827" pageHeight="583" math="0" shadow="0">
      <root>
        <mxCell id="0" />
        <mxCell id="1" parent="0" />
        <mxCell id="FU9vfG8obq2Q06D0p8Gt-6" style="edgeStyle=orthogonalEdgeStyle;rounded=0;orthogonalLoop=1;jettySize=auto;html=1;endArrow=none;startFill=0;" edge="1" parent="1" source="FU9vfG8obq2Q06D0p8Gt-1" target="FU9vfG8obq2Q06D0p8Gt-7">
          <mxGeometry relative="1" as="geometry">
            <mxPoint x="430" y="550" as="targetPoint" />
          </mxGeometry>
        </mxCell>
        <mxCell id="FU9vfG8obq2Q06D0p8Gt-44" style="edgeStyle=orthogonalEdgeStyle;rounded=0;orthogonalLoop=1;jettySize=auto;html=1;exitX=0.5;exitY=0;exitDx=0;exitDy=0;endArrow=ERmany;startFill=0;endFill=0;startSize=20;endSize=20;startArrow=ERone;" edge="1" parent="1" source="FU9vfG8obq2Q06D0p8Gt-1">
          <mxGeometry relative="1" as="geometry">
            <mxPoint x="590" y="220" as="targetPoint" />
          </mxGeometry>
        </mxCell>
        <mxCell id="FU9vfG8obq2Q06D0p8Gt-1" value="User" style="whiteSpace=wrap;html=1;aspect=fixed;" vertex="1" parent="1">
          <mxGeometry x="390" y="290" width="80" height="80" as="geometry" />
        </mxCell>
        <mxCell id="FU9vfG8obq2Q06D0p8Gt-12" style="edgeStyle=orthogonalEdgeStyle;rounded=0;orthogonalLoop=1;jettySize=auto;html=1;endArrow=none;startFill=0;" edge="1" parent="1" source="FU9vfG8obq2Q06D0p8Gt-2" target="FU9vfG8obq2Q06D0p8Gt-13">
          <mxGeometry relative="1" as="geometry">
            <mxPoint x="690" y="560" as="targetPoint" />
          </mxGeometry>
        </mxCell>
        <mxCell id="FU9vfG8obq2Q06D0p8Gt-43" style="edgeStyle=orthogonalEdgeStyle;rounded=0;orthogonalLoop=1;jettySize=auto;html=1;exitX=1;exitY=0.5;exitDx=0;exitDy=0;endArrow=ERmany;endFill=0;startSize=20;endSize=19;startArrow=ERone;startFill=0;" edge="1" parent="1" source="FU9vfG8obq2Q06D0p8Gt-2" target="FU9vfG8obq2Q06D0p8Gt-3">
          <mxGeometry relative="1" as="geometry" />
        </mxCell>
        <mxCell id="FU9vfG8obq2Q06D0p8Gt-2" value="Category" style="whiteSpace=wrap;html=1;aspect=fixed;" vertex="1" parent="1">
          <mxGeometry x="740" y="290" width="80" height="80" as="geometry" />
        </mxCell>
        <mxCell id="FU9vfG8obq2Q06D0p8Gt-16" style="edgeStyle=orthogonalEdgeStyle;rounded=0;orthogonalLoop=1;jettySize=auto;html=1;endArrow=none;startFill=0;" edge="1" parent="1" source="FU9vfG8obq2Q06D0p8Gt-3" target="FU9vfG8obq2Q06D0p8Gt-17">
          <mxGeometry relative="1" as="geometry">
            <mxPoint x="1100" y="560" as="targetPoint" />
          </mxGeometry>
        </mxCell>
        <mxCell id="FU9vfG8obq2Q06D0p8Gt-3" value="Product" style="whiteSpace=wrap;html=1;aspect=fixed;" vertex="1" parent="1">
          <mxGeometry x="1060" y="290" width="80" height="80" as="geometry" />
        </mxCell>
        <mxCell id="FU9vfG8obq2Q06D0p8Gt-22" style="edgeStyle=orthogonalEdgeStyle;rounded=0;orthogonalLoop=1;jettySize=auto;html=1;endArrow=none;startFill=0;" edge="1" parent="1" source="FU9vfG8obq2Q06D0p8Gt-4" target="FU9vfG8obq2Q06D0p8Gt-23">
          <mxGeometry relative="1" as="geometry">
            <mxPoint x="510" y="170" as="targetPoint" />
          </mxGeometry>
        </mxCell>
        <mxCell id="FU9vfG8obq2Q06D0p8Gt-50" style="edgeStyle=orthogonalEdgeStyle;rounded=0;orthogonalLoop=1;jettySize=auto;html=1;endArrow=ERmany;endFill=0;endSize=20;" edge="1" parent="1" source="FU9vfG8obq2Q06D0p8Gt-4" target="FU9vfG8obq2Q06D0p8Gt-5">
          <mxGeometry relative="1" as="geometry">
            <mxPoint x="890" y="176.67000000000007" as="targetPoint" />
          </mxGeometry>
        </mxCell>
        <mxCell id="FU9vfG8obq2Q06D0p8Gt-4" value="Order" style="whiteSpace=wrap;html=1;aspect=fixed;" vertex="1" parent="1">
          <mxGeometry x="550" y="136.67000000000002" width="80" height="80" as="geometry" />
        </mxCell>
        <mxCell id="FU9vfG8obq2Q06D0p8Gt-27" style="edgeStyle=orthogonalEdgeStyle;rounded=0;orthogonalLoop=1;jettySize=auto;html=1;" edge="1" parent="1" source="FU9vfG8obq2Q06D0p8Gt-5" target="FU9vfG8obq2Q06D0p8Gt-28">
          <mxGeometry relative="1" as="geometry">
            <mxPoint x="940" y="150" as="targetPoint" />
          </mxGeometry>
        </mxCell>
        <mxCell id="FU9vfG8obq2Q06D0p8Gt-47" style="edgeStyle=orthogonalEdgeStyle;rounded=0;orthogonalLoop=1;jettySize=auto;html=1;entryX=0.5;entryY=0;entryDx=0;entryDy=0;endArrow=none;startFill=0;startArrow=ERmany;startSize=20;" edge="1" parent="1" source="FU9vfG8obq2Q06D0p8Gt-5" target="FU9vfG8obq2Q06D0p8Gt-3">
          <mxGeometry relative="1" as="geometry">
            <mxPoint x="1100" y="200" as="targetPoint" />
          </mxGeometry>
        </mxCell>
        <mxCell id="FU9vfG8obq2Q06D0p8Gt-5" value="Order_Detail" style="whiteSpace=wrap;html=1;aspect=fixed;" vertex="1" parent="1">
          <mxGeometry x="900" y="160" width="80" height="80" as="geometry" />
        </mxCell>
        <mxCell id="FU9vfG8obq2Q06D0p8Gt-7" value="user_id" style="ellipse;whiteSpace=wrap;html=1;fillColor=#e51400;fontColor=#ffffff;strokeColor=#B20000;" vertex="1" parent="1">
          <mxGeometry x="380" y="553.33" width="100" height="66.67" as="geometry" />
        </mxCell>
        <mxCell id="FU9vfG8obq2Q06D0p8Gt-8" value="email" style="ellipse;whiteSpace=wrap;html=1;" vertex="1" parent="1">
          <mxGeometry x="310" y="470" width="90" height="60" as="geometry" />
        </mxCell>
        <mxCell id="FU9vfG8obq2Q06D0p8Gt-42" value="" style="edgeStyle=orthogonalEdgeStyle;rounded=0;orthogonalLoop=1;jettySize=auto;html=1;endArrow=none;startFill=0;" edge="1" parent="1" source="FU9vfG8obq2Q06D0p8Gt-9" target="FU9vfG8obq2Q06D0p8Gt-10">
          <mxGeometry relative="1" as="geometry" />
        </mxCell>
        <mxCell id="FU9vfG8obq2Q06D0p8Gt-9" value="name" style="ellipse;whiteSpace=wrap;html=1;" vertex="1" parent="1">
          <mxGeometry x="310" y="390" width="90" height="60" as="geometry" />
        </mxCell>
        <mxCell id="FU9vfG8obq2Q06D0p8Gt-10" value="password" style="ellipse;whiteSpace=wrap;html=1;" vertex="1" parent="1">
          <mxGeometry x="470" y="390" width="90" height="60" as="geometry" />
        </mxCell>
        <mxCell id="FU9vfG8obq2Q06D0p8Gt-41" value="" style="edgeStyle=orthogonalEdgeStyle;rounded=0;orthogonalLoop=1;jettySize=auto;html=1;endArrow=none;startFill=0;" edge="1" parent="1" source="FU9vfG8obq2Q06D0p8Gt-11" target="FU9vfG8obq2Q06D0p8Gt-8">
          <mxGeometry relative="1" as="geometry" />
        </mxCell>
        <mxCell id="FU9vfG8obq2Q06D0p8Gt-11" value="created_at" style="ellipse;whiteSpace=wrap;html=1;" vertex="1" parent="1">
          <mxGeometry x="470" y="470" width="90" height="60" as="geometry" />
        </mxCell>
        <mxCell id="FU9vfG8obq2Q06D0p8Gt-13" value="category_id" style="ellipse;whiteSpace=wrap;html=1;fillColor=#e51400;fontColor=#ffffff;strokeColor=#B20000;" vertex="1" parent="1">
          <mxGeometry x="730" y="553.33" width="100" height="66.67" as="geometry" />
        </mxCell>
        <mxCell id="FU9vfG8obq2Q06D0p8Gt-14" value="name" style="ellipse;whiteSpace=wrap;html=1;" vertex="1" parent="1">
          <mxGeometry x="650" y="470.00000000000006" width="100" height="66.67" as="geometry" />
        </mxCell>
        <mxCell id="FU9vfG8obq2Q06D0p8Gt-40" value="" style="edgeStyle=orthogonalEdgeStyle;rounded=0;orthogonalLoop=1;jettySize=auto;html=1;endArrow=none;startFill=0;" edge="1" parent="1" source="FU9vfG8obq2Q06D0p8Gt-15" target="FU9vfG8obq2Q06D0p8Gt-14">
          <mxGeometry relative="1" as="geometry" />
        </mxCell>
        <mxCell id="FU9vfG8obq2Q06D0p8Gt-15" value="description" style="ellipse;whiteSpace=wrap;html=1;" vertex="1" parent="1">
          <mxGeometry x="810" y="470.00000000000006" width="100" height="66.67" as="geometry" />
        </mxCell>
        <mxCell id="FU9vfG8obq2Q06D0p8Gt-17" value="product_id" style="ellipse;whiteSpace=wrap;html=1;fillColor=#e51400;fontColor=#ffffff;strokeColor=#B20000;" vertex="1" parent="1">
          <mxGeometry x="1050" y="553.33" width="100" height="66.67" as="geometry" />
        </mxCell>
        <mxCell id="FU9vfG8obq2Q06D0p8Gt-18" value="name" style="ellipse;whiteSpace=wrap;html=1;" vertex="1" parent="1">
          <mxGeometry x="959" y="460" width="101" height="70" as="geometry" />
        </mxCell>
        <mxCell id="FU9vfG8obq2Q06D0p8Gt-39" value="" style="edgeStyle=orthogonalEdgeStyle;rounded=0;orthogonalLoop=1;jettySize=auto;html=1;endArrow=none;startFill=0;" edge="1" parent="1" source="FU9vfG8obq2Q06D0p8Gt-19" target="FU9vfG8obq2Q06D0p8Gt-18">
          <mxGeometry relative="1" as="geometry" />
        </mxCell>
        <mxCell id="FU9vfG8obq2Q06D0p8Gt-19" value="price" style="ellipse;whiteSpace=wrap;html=1;" vertex="1" parent="1">
          <mxGeometry x="1130" y="460" width="101" height="70" as="geometry" />
        </mxCell>
        <mxCell id="FU9vfG8obq2Q06D0p8Gt-20" value="stock" style="ellipse;whiteSpace=wrap;html=1;" vertex="1" parent="1">
          <mxGeometry x="1130" y="385" width="101" height="70" as="geometry" />
        </mxCell>
        <mxCell id="FU9vfG8obq2Q06D0p8Gt-37" value="" style="edgeStyle=orthogonalEdgeStyle;rounded=0;orthogonalLoop=1;jettySize=auto;html=1;endArrow=none;startFill=0;" edge="1" parent="1" source="FU9vfG8obq2Q06D0p8Gt-21" target="FU9vfG8obq2Q06D0p8Gt-20">
          <mxGeometry relative="1" as="geometry" />
        </mxCell>
        <mxCell id="FU9vfG8obq2Q06D0p8Gt-21" value="category_id" style="ellipse;whiteSpace=wrap;html=1;fillColor=#647687;fontColor=#ffffff;strokeColor=#314354;" vertex="1" parent="1">
          <mxGeometry x="980" y="385" width="101" height="70" as="geometry" />
        </mxCell>
        <mxCell id="FU9vfG8obq2Q06D0p8Gt-23" value="order_id" style="ellipse;whiteSpace=wrap;html=1;fillColor=#e51400;fontColor=#ffffff;strokeColor=#B20000;" vertex="1" parent="1">
          <mxGeometry x="540" y="-99.99999999999994" width="100" height="66.67" as="geometry" />
        </mxCell>
        <mxCell id="FU9vfG8obq2Q06D0p8Gt-24" value="user_id" style="ellipse;whiteSpace=wrap;html=1;fillColor=#647687;fontColor=#ffffff;strokeColor=#314354;" vertex="1" parent="1">
          <mxGeometry x="460" y="70.00000000000006" width="100" height="66.67" as="geometry" />
        </mxCell>
        <mxCell id="FU9vfG8obq2Q06D0p8Gt-25" value="created_at" style="ellipse;whiteSpace=wrap;html=1;" vertex="1" parent="1">
          <mxGeometry x="640" y="75.00000000000006" width="100" height="66.67" as="geometry" />
        </mxCell>
        <mxCell id="FU9vfG8obq2Q06D0p8Gt-35" style="edgeStyle=orthogonalEdgeStyle;rounded=0;orthogonalLoop=1;jettySize=auto;html=1;endArrow=none;startFill=0;" edge="1" parent="1" source="FU9vfG8obq2Q06D0p8Gt-26">
          <mxGeometry relative="1" as="geometry">
            <mxPoint x="590" y="23.335000000000036" as="targetPoint" />
          </mxGeometry>
        </mxCell>
        <mxCell id="FU9vfG8obq2Q06D0p8Gt-26" value="total_amount" style="ellipse;whiteSpace=wrap;html=1;" vertex="1" parent="1">
          <mxGeometry x="640" y="-9.999999999999943" width="100" height="66.67" as="geometry" />
        </mxCell>
        <mxCell id="FU9vfG8obq2Q06D0p8Gt-28" value="order_id" style="ellipse;whiteSpace=wrap;html=1;fillColor=#647687;fontColor=#ffffff;strokeColor=#314354;" vertex="1" parent="1">
          <mxGeometry x="890" y="-109.99999999999994" width="100" height="66.67" as="geometry" />
        </mxCell>
        <mxCell id="FU9vfG8obq2Q06D0p8Gt-34" value="" style="edgeStyle=orthogonalEdgeStyle;rounded=0;orthogonalLoop=1;jettySize=auto;html=1;endArrow=none;startFill=0;" edge="1" parent="1" source="FU9vfG8obq2Q06D0p8Gt-29" target="FU9vfG8obq2Q06D0p8Gt-32">
          <mxGeometry relative="1" as="geometry" />
        </mxCell>
        <mxCell id="FU9vfG8obq2Q06D0p8Gt-29" value="product_id" style="ellipse;whiteSpace=wrap;html=1;fillColor=#647687;fontColor=#ffffff;strokeColor=#314354;" vertex="1" parent="1">
          <mxGeometry x="990" y="76.67000000000002" width="100" height="66.67" as="geometry" />
        </mxCell>
        <mxCell id="FU9vfG8obq2Q06D0p8Gt-51" style="edgeStyle=orthogonalEdgeStyle;rounded=0;orthogonalLoop=1;jettySize=auto;html=1;exitX=1;exitY=0.5;exitDx=0;exitDy=0;endArrow=none;startFill=0;" edge="1" parent="1" source="FU9vfG8obq2Q06D0p8Gt-31">
          <mxGeometry relative="1" as="geometry">
            <mxPoint x="939.9999999999995" y="23" as="targetPoint" />
          </mxGeometry>
        </mxCell>
        <mxCell id="FU9vfG8obq2Q06D0p8Gt-31" value="quantity" style="ellipse;whiteSpace=wrap;html=1;" vertex="1" parent="1">
          <mxGeometry x="810" y="-9.999999999999943" width="100" height="66.67" as="geometry" />
        </mxCell>
        <mxCell id="FU9vfG8obq2Q06D0p8Gt-32" value="price_at_time" style="ellipse;whiteSpace=wrap;html=1;" vertex="1" parent="1">
          <mxGeometry x="810" y="76.66000000000008" width="100" height="66.67" as="geometry" />
        </mxCell>
        <mxCell id="FU9vfG8obq2Q06D0p8Gt-36" style="edgeStyle=orthogonalEdgeStyle;rounded=0;orthogonalLoop=1;jettySize=auto;html=1;entryX=1;entryY=0.575;entryDx=0;entryDy=0;entryPerimeter=0;endArrow=none;startFill=0;" edge="1" parent="1" source="FU9vfG8obq2Q06D0p8Gt-25" target="FU9vfG8obq2Q06D0p8Gt-24">
          <mxGeometry relative="1" as="geometry" />
        </mxCell>
      </root>
    </mxGraphModel>
  </diagram>
</mxfile>
